<?xml version="1.0" standalone="no"?>
<!DOCTYPE svg PUBLIC "-//W3C//DTD SVG 20010904//EN"
 "http://www.w3.org/TR/2001/REC-SVG-20010904/DTD/svg10.dtd">
<svg version="1.0" xmlns="http://www.w3.org/2000/svg"
 width="165.000000pt" height="156.000000pt" viewBox="0 0 165.000000 156.000000"
 preserveAspectRatio="xMidYMid meet">
<metadata>
Created by potrace 1.10, written by Peter Selinger 2001-2011
</metadata>
<g transform="translate(0.000000,156.000000) scale(0.100000,-0.100000)"
fill="#000000" stroke="none">
<path d="M420 1405 c-96 -19 -183 -68 -256 -144 -29 -31 -84 -135 -84 -160 0
-10 -7 -33 -16 -51 -13 -26 -16 -50 -11 -114 13 -169 90 -305 255 -446 10 -8
69 -61 132 -118 63 -57 144 -129 179 -160 157 -141 185 -155 255 -132 34 11
64 36 185 153 30 28 63 57 72 62 29 16 153 131 275 254 145 147 188 228 201
382 6 80 -4 128 -50 229 -23 51 -120 167 -151 181 -12 5 -28 13 -36 19 -59 40
-176 59 -271 44 -99 -15 -135 -32 -201 -98 -31 -31 -60 -56 -66 -56 -6 0 -39
27 -74 60 -34 33 -70 60 -78 60 -9 0 -24 6 -35 14 -11 7 -40 16 -65 19 -25 3
-56 7 -70 10 -14 3 -54 -1 -90 -8z"/>
</g>
</svg>
