<?xml version="1.0" standalone="no"?>
<!DOCTYPE svg PUBLIC "-//W3C//DTD SVG 20010904//EN"
 "http://www.w3.org/TR/2001/REC-SVG-20010904/DTD/svg10.dtd">
<svg version="1.0" xmlns="http://www.w3.org/2000/svg"
 width="70.000000pt" height="82.000000pt" viewBox="0 0 70.000000 82.000000"
 preserveAspectRatio="xMidYMid meet">
<metadata>
Created by potrace 1.10, written by Peter Selinger 2001-2011
</metadata>
<g transform="translate(0.000000,82.000000) scale(0.100000,-0.100000)"
fill="#000000" stroke="none">
<path d="M27 782 c-15 -17 -17 -56 -17 -363 0 -189 4 -349 8 -355 23 -34 45
-24 136 63 50 48 114 110 143 137 l52 49 138 -129 c76 -72 145 -133 155 -137
9 -3 23 2 32 12 14 15 16 61 16 364 l0 346 -22 15 c-19 14 -67 16 -324 16
-279 0 -302 -1 -317 -18z m583 -333 l0 -271 -77 70 c-43 39 -96 89 -118 111
-24 25 -48 41 -63 41 -16 0 -54 -30 -120 -93 -53 -51 -107 -101 -119 -111
l-23 -19 0 271 0 272 260 0 260 0 0 -271z"/>
</g>
</svg>
