<?xml version="1.0" standalone="no"?>
<!DOCTYPE svg PUBLIC "-//W3C//DTD SVG 20010904//EN"
 "http://www.w3.org/TR/2001/REC-SVG-20010904/DTD/svg10.dtd">
<svg version="1.0" xmlns="http://www.w3.org/2000/svg"
 width="84.000000pt" height="85.000000pt" viewBox="0 0 84.000000 85.000000"
 preserveAspectRatio="xMidYMid meet">
<metadata>
Created by potrace 1.10, written by Peter Selinger 2001-2011
</metadata>
<g transform="translate(0.000000,85.000000) scale(0.050000,-0.050000)"
fill="#000000" stroke="none">
<path d="M590 1633 c-880 -291 -729 -1565 192 -1609 150 -8 197 -2 301 37
l123 46 185 -46 c271 -68 282 -57 206 221 l-43 156 46 141 c200 624 -404 1255
-1010 1054z m400 -146 c369 -70 606 -546 450 -904 -46 -105 -46 -110 -15 -240
38 -159 50 -146 -97 -107 -120 31 -123 31 -289 -24 -457 -151 -880 157 -882
641 -2 435 376 722 833 634z"/>
</g>
</svg>
