<?xml version="1.0" standalone="no"?>
<!DOCTYPE svg PUBLIC "-//W3C//DTD SVG 20010904//EN"
 "http://www.w3.org/TR/2001/REC-SVG-20010904/DTD/svg10.dtd">
<svg version="1.0" xmlns="http://www.w3.org/2000/svg"
 width="498.000000pt" height="495.000000pt" viewBox="0 0 498.000000 495.000000"
 preserveAspectRatio="xMidYMid meet">
<metadata>
Created by potrace 1.10, written by Peter Selinger 2001-2011
</metadata>
<g transform="translate(0.000000,495.000000) scale(0.100000,-0.100000)"
fill="#000000" stroke="none">
<path d="M1485 4889 c-77 -5 -169 -14 -205 -19 -36 -6 -92 -15 -125 -20 -77
-12 -165 -34 -193 -49 -11 -6 -30 -11 -40 -11 -28 0 -304 -141 -338 -173 -71
-65 -86 -77 -95 -77 -13 0 -159 -146 -159 -159 0 -5 -10 -21 -22 -34 -57 -62
-75 -85 -98 -129 -91 -170 -130 -254 -130 -277 0 -15 -5 -32 -11 -38 -11 -11
-15 -25 -47 -178 -15 -72 -17 -196 -16 -1305 1 -1197 4 -1323 32 -1377 7 -12
12 -34 12 -50 0 -15 7 -41 15 -57 8 -15 15 -35 15 -42 0 -8 4 -22 9 -32 6 -9
29 -56 52 -105 22 -48 45 -90 50 -93 5 -3 9 -12 9 -20 0 -15 75 -119 113 -156
9 -10 17 -21 17 -26 0 -10 99 -112 138 -142 18 -14 47 -38 65 -53 18 -16 44
-36 60 -45 15 -9 27 -20 27 -24 0 -11 282 -148 305 -148 11 0 31 -6 45 -13 73
-38 94 -38 1500 -34 1341 3 1443 6 1472 35 7 7 22 12 34 12 39 0 309 143 357
189 25 24 60 52 78 63 37 21 159 143 159 158 0 5 10 20 23 33 45 50 72 82 82
99 36 60 145 283 145 296 0 8 11 49 24 91 72 228 81 381 81 1416 0 827 -6
1119 -27 1215 -5 25 -12 68 -15 95 -2 28 -11 65 -19 84 -8 18 -14 43 -14 55 0
70 -139 360 -218 453 -20 25 -47 59 -58 76 -42 62 -105 122 -254 239 -57 45
-310 178 -339 178 -9 0 -29 7 -45 15 -15 8 -37 15 -48 15 -10 0 -40 6 -66 14
-79 23 -171 38 -302 48 -162 13 -1852 18 -2035 7z m1991 -459 c143 -11 205
-21 309 -52 79 -24 190 -73 200 -88 3 -5 13 -10 22 -10 9 0 32 -15 53 -32 20
-18 51 -44 69 -58 41 -31 60 -50 91 -91 14 -18 40 -49 58 -69 17 -21 32 -44
32 -52 0 -9 7 -21 15 -28 8 -7 15 -20 15 -30 0 -10 7 -23 15 -30 8 -7 15 -20
15 -30 0 -10 7 -23 15 -30 8 -7 15 -25 15 -40 0 -15 7 -41 15 -56 8 -16 15
-43 15 -60 0 -17 6 -47 14 -65 8 -20 16 -94 20 -179 10 -232 7 -1943 -4 -2060
-16 -172 -40 -281 -76 -352 -8 -14 -14 -33 -14 -41 0 -8 -7 -20 -15 -27 -8 -7
-15 -20 -15 -30 0 -10 -7 -23 -15 -30 -8 -7 -15 -20 -15 -29 0 -9 -8 -24 -17
-33 -33 -30 -71 -74 -90 -106 -11 -17 -51 -55 -89 -84 -38 -28 -73 -58 -77
-65 -4 -7 -17 -13 -27 -13 -10 0 -21 -4 -24 -9 -12 -19 -144 -78 -189 -85 -25
-4 -49 -11 -52 -17 -4 -5 -20 -9 -37 -9 -16 0 -53 -6 -81 -14 -29 -8 -103 -17
-166 -20 -173 -9 -1931 -6 -2051 4 -216 17 -351 56 -511 146 -92 52 -309 268
-309 308 0 7 -7 19 -15 26 -8 7 -15 20 -15 30 0 10 -7 23 -15 30 -8 7 -15 20
-15 30 0 10 -7 23 -15 30 -8 7 -15 27 -15 45 0 18 -7 38 -15 45 -9 8 -15 29
-15 56 0 24 -6 61 -14 81 -8 22 -17 97 -20 178 -10 219 -6 1959 4 2065 11 112
34 241 49 269 6 11 11 27 11 35 0 20 67 163 80 171 5 3 10 14 10 23 0 9 19 37
43 62 24 25 53 62 66 82 12 20 30 40 39 43 9 3 44 30 77 60 33 30 67 55 76 55
9 0 22 7 29 15 7 8 20 15 30 15 10 0 23 7 30 15 7 8 20 15 30 15 10 0 23 7 30
15 7 8 26 15 42 15 17 0 44 6 61 14 18 8 52 17 77 20 25 4 56 9 70 12 14 3 97
11 185 17 198 15 1812 12 2001 -3z"/>
<path d="M2372 3859 c-46 -14 -118 -88 -131 -135 -7 -25 -11 -217 -11 -545 0
-473 -1 -507 -18 -522 -16 -14 -77 -16 -548 -19 l-530 -3 -41 -33 c-56 -44
-83 -91 -90 -154 -8 -81 11 -133 67 -188 71 -69 82 -70 649 -70 346 1 487 -2
497 -11 11 -9 14 -108 16 -538 l3 -527 28 -42 c38 -58 93 -92 158 -99 81 -8
134 10 188 66 71 72 71 76 71 646 0 316 4 496 10 500 5 3 226 6 491 5 566 -1
578 1 649 70 56 55 75 107 67 188 -7 63 -34 110 -90 154 l-41 33 -530 3 c-361
2 -534 6 -543 14 -10 8 -13 111 -13 503 0 570 0 574 -71 646 -63 65 -144 84
-237 58z"/>
</g>
</svg>
