<?xml version="1.0" standalone="no"?>
<!DOCTYPE svg PUBLIC "-//W3C//DTD SVG 20010904//EN"
 "http://www.w3.org/TR/2001/REC-SVG-20010904/DTD/svg10.dtd">
<svg version="1.0" xmlns="http://www.w3.org/2000/svg"
 width="900.000000pt" height="642.000000pt" viewBox="0 0 900.000000 642.000000"
 preserveAspectRatio="xMidYMid meet">
<metadata>
Created by potrace 1.10, written by Peter Selinger 2001-2011
</metadata>
<g transform="translate(0.000000,642.000000) scale(0.100000,-0.100000)"
fill="#000000" stroke="none">
<path d="M3930 6244 c-373 -24 -705 -43 -1000 -59 -157 -8 -393 -22 -525 -30
-132 -8 -375 -22 -540 -30 -727 -37 -855 -55 -1011 -141 -121 -66 -263 -194
-331 -298 -25 -39 -53 -82 -63 -96 -9 -14 -19 -34 -22 -45 -4 -11 -16 -45 -28
-75 -54 -142 -70 -312 -49 -540 5 -63 14 -205 19 -315 5 -110 14 -279 20 -375
19 -326 40 -684 55 -965 9 -154 20 -354 26 -445 6 -91 15 -248 19 -350 21
-465 39 -640 76 -725 64 -149 97 -203 184 -305 92 -107 292 -234 431 -274 31
-9 105 -23 165 -31 96 -13 137 -13 339 0 127 8 365 22 530 30 165 8 370 20
455 26 181 12 553 29 690 32 l95 2 6 -130 c3 -71 11 -148 18 -170 7 -22 20
-65 29 -95 57 -189 197 -370 383 -495 117 -79 324 -145 453 -145 28 0 141 -6
251 -15 110 -8 333 -21 495 -30 162 -9 399 -22 525 -30 127 -8 356 -22 510
-30 296 -16 600 -34 1033 -61 348 -22 437 -16 637 44 40 12 134 64 217 119 81
53 207 188 265 284 63 101 134 340 133 444 0 40 17 330 45 750 9 121 15 247
15 280 0 33 6 157 14 275 8 118 22 339 31 490 20 362 42 721 60 1010 20 309
19 387 -5 495 -30 135 -61 210 -136 326 -104 162 -317 324 -489 371 -149 41
-194 48 -455 62 -151 9 -390 23 -530 31 -140 8 -388 22 -550 30 -162 8 -405
22 -540 30 -135 8 -311 18 -392 21 -89 4 -153 11 -163 18 -14 10 -19 41 -26
152 -5 76 -13 157 -19 179 -5 22 -10 56 -10 76 0 21 -13 70 -30 110 -16 41
-30 78 -30 83 0 4 -13 28 -30 53 -16 24 -30 46 -30 48 0 12 -59 87 -119 151
-136 146 -282 225 -512 279 -80 18 -282 18 -589 -1z m596 -185 c258 -61 443
-224 548 -484 29 -73 45 -170 52 -315 l7 -143 -144 6 c-79 4 -206 10 -282 13
-266 13 -443 -32 -639 -162 -65 -44 -215 -192 -240 -238 -7 -14 -28 -50 -47
-81 -84 -142 -110 -276 -131 -686 -6 -111 -13 -212 -16 -223 -2 -12 -8 -94
-12 -182 l-8 -162 -59 -68 c-33 -38 -76 -87 -97 -109 -21 -22 -117 -130 -214
-240 -97 -110 -191 -216 -208 -235 -18 -19 -65 -73 -106 -120 -165 -188 -222
-240 -267 -240 -47 0 -115 49 -283 206 -30 28 -75 69 -100 90 -25 21 -74 65
-110 99 -60 56 -123 112 -290 259 -78 69 -116 87 -195 89 -76 2 -137 -17 -201
-65 -49 -36 -187 -184 -354 -378 -40 -47 -94 -107 -120 -135 -53 -56 -171
-190 -240 -271 -35 -41 -48 -50 -57 -41 -7 7 -15 89 -22 212 -27 468 -42 735
-56 970 -8 138 -22 378 -30 535 -8 157 -22 398 -30 535 -40 666 -40 658 -22
774 36 234 156 416 353 534 34 20 65 37 70 37 4 0 36 12 72 26 72 28 220 48
437 58 151 7 570 30 935 51 519 30 649 37 830 45 102 4 264 13 360 19 724 47
797 49 916 20z m424 -1104 c113 -8 331 -22 485 -30 154 -9 381 -22 505 -30
124 -8 351 -21 505 -30 154 -9 370 -23 480 -31 110 -8 229 -14 265 -14 111 1
500 -30 600 -47 100 -17 127 -26 227 -75 75 -38 198 -143 254 -218 51 -68 107
-185 119 -248 5 -26 13 -60 19 -75 13 -35 14 -206 1 -347 -6 -58 -15 -195 -20
-305 -5 -110 -14 -272 -20 -360 -19 -315 -40 -664 -55 -935 -8 -151 -22 -381
-30 -510 -8 -129 -22 -359 -30 -510 -9 -151 -23 -313 -32 -360 -64 -331 -345
-588 -677 -617 -67 -6 -290 4 -736 32 -124 8 -351 21 -505 30 -277 15 -615 35
-935 55 -91 6 -257 15 -370 20 -113 5 -250 14 -305 20 -55 5 -143 10 -195 10
-110 0 -281 29 -359 60 -75 29 -181 93 -238 143 -63 57 -151 178 -189 262 -79
174 -79 200 -19 1125 8 124 22 351 30 505 9 154 22 379 30 500 8 121 21 346
30 500 8 154 22 372 30 485 8 113 15 232 15 265 1 101 45 266 93 343 13 20 26
44 29 52 3 8 34 47 67 87 99 117 234 200 391 242 95 25 256 27 540 6z m-1372
-1995 c-4 -52 -12 -174 -17 -270 -15 -293 -31 -546 -47 -740 -8 -102 -14 -225
-15 -275 0 -101 -12 -231 -20 -240 -6 -6 -280 -23 -799 -50 -162 -8 -421 -22
-576 -31 -154 -9 -386 -16 -515 -17 -202 -2 -244 1 -309 17 -110 28 -216 79
-277 131 -107 93 -173 177 -227 290 -25 52 -55 148 -56 182 0 13 40 62 145
178 202 224 555 619 638 715 60 68 118 110 154 110 27 0 86 -34 133 -76 19
-17 87 -77 150 -134 63 -56 153 -137 200 -180 47 -42 105 -94 130 -115 25 -22
74 -67 110 -101 76 -71 127 -104 194 -127 82 -28 138 -23 218 21 63 33 89 58
237 225 178 202 234 265 350 398 130 149 194 211 201 197 4 -7 3 -56 -2 -108z"/>
<path d="M1430 5371 c-70 -18 -92 -29 -155 -76 -55 -40 -77 -63 -111 -115 -43
-64 -54 -95 -70 -185 -61 -349 294 -630 621 -492 28 11 64 30 80 41 42 29 115
98 115 110 0 5 7 17 16 27 8 9 29 50 45 89 69 170 18 371 -126 498 -55 48
-117 79 -209 104 -84 22 -120 22 -206 -1z m211 -190 c110 -52 170 -142 171
-255 0 -94 -45 -178 -126 -231 -124 -82 -298 -48 -378 73 -38 57 -61 137 -54
184 31 192 223 306 387 229z"/>
<path d="M5274 3932 c-66 -22 -142 -71 -188 -122 -74 -82 -101 -180 -111 -410
-3 -69 -12 -224 -20 -345 -19 -282 -33 -529 -45 -780 -6 -110 -14 -231 -19
-270 -16 -127 -14 -336 4 -391 48 -149 153 -248 303 -285 77 -18 122 -16 212
12 47 15 1652 815 1716 856 63 40 116 99 152 173 24 49 27 66 27 161 0 100 -6
127 -36 179 -5 8 -13 24 -18 35 -19 43 -108 129 -190 183 -47 31 -90 59 -96
62 -5 3 -64 41 -130 84 -410 271 -565 372 -680 447 -189 123 -188 123 -207
134 -10 5 -50 32 -90 59 -280 188 -272 183 -363 215 -71 25 -150 26 -221 3z
m177 -185 c45 -11 117 -55 385 -233 181 -120 334 -221 339 -224 6 -3 158 -104
340 -225 181 -121 334 -222 340 -225 42 -20 198 -138 220 -166 34 -45 55 -96
55 -136 0 -45 -55 -152 -93 -181 -37 -27 -1645 -830 -1696 -846 -101 -32 -198
9 -261 112 -22 38 -23 43 -16 208 4 93 11 208 16 256 5 49 10 129 10 178 0 50
6 171 15 270 15 188 30 435 45 765 10 209 21 284 51 341 23 46 82 93 134 107
54 13 52 14 116 -1z"/>
</g>
</svg>
