<?xml version="1.0" standalone="no"?>
<!DOCTYPE svg PUBLIC "-//W3C//DTD SVG 20010904//EN"
 "http://www.w3.org/TR/2001/REC-SVG-20010904/DTD/svg10.dtd">
<svg version="1.0" xmlns="http://www.w3.org/2000/svg"
 width="369.000000pt" height="363.000000pt" viewBox="0 0 369.000000 363.000000"
 preserveAspectRatio="xMidYMid meet">
<metadata>
Created by potrace 1.10, written by Peter Selinger 2001-2011
</metadata>
<g transform="translate(0.000000,363.000000) scale(0.100000,-0.100000)"
fill="#000000" stroke="none">
<path d="M355 3390 c-3 -5 -17 -10 -29 -10 -13 0 -29 -7 -36 -15 -7 -8 -17
-15 -22 -15 -18 0 -60 -39 -78 -73 -26 -49 -44 -142 -31 -166 6 -11 11 -32 11
-46 0 -15 14 -46 32 -69 17 -22 316 -327 664 -676 445 -446 631 -639 625 -648
-4 -7 -303 -309 -663 -670 l-655 -657 -13 -73 c-11 -57 -11 -78 -2 -93 7 -10
12 -26 12 -34 0 -20 49 -87 87 -119 30 -25 36 -26 154 -26 l123 0 663 662 663
663 648 -646 c356 -355 659 -653 674 -662 21 -13 53 -17 144 -17 114 0 116 0
160 32 24 17 44 39 44 48 0 9 5 21 12 28 14 14 37 95 37 132 1 31 -18 85 -43
125 -11 17 -310 321 -665 677 l-646 648 645 647 c355 356 647 650 650 653 18
17 38 61 48 102 23 91 -23 205 -105 260 -75 51 -187 55 -263 10 -14 -9 -318
-307 -675 -664 -358 -356 -653 -648 -655 -648 -3 0 -291 286 -640 636 -349
349 -653 648 -675 663 -55 37 -186 64 -200 41z"/>
</g>
</svg>
