<?xml version="1.0" standalone="no"?>
<!DOCTYPE svg PUBLIC "-//W3C//DTD SVG 20010904//EN"
 "http://www.w3.org/TR/2001/REC-SVG-20010904/DTD/svg10.dtd">
<svg version="1.0" xmlns="http://www.w3.org/2000/svg"
 width="174.000000pt" height="186.000000pt" viewBox="0 0 174.000000 186.000000"
 preserveAspectRatio="xMidYMid meet">
<metadata>
Created by potrace 1.10, written by Peter Selinger 2001-2011
</metadata>
<g transform="translate(0.000000,186.000000) scale(0.050000,-0.050000)"
fill="#000000" stroke="none">
<path d="M1390 3507 c-1343 -288 -1829 -1928 -860 -2897 1172 -1172 3145 -184
2912 1459 -138 969 -1098 1642 -2052 1438z m660 -297 c510 -106 974 -570 1080
-1080 291 -1392 -1386 -2311 -2392 -1311 -1002 997 -78 2681 1312 2391z"/>
<path d="M2310 2612 c-93 -43 -193 -84 -270 -111 -77 -27 -115 -42 -220 -86
-38 -16 -101 -40 -140 -54 -88 -31 -137 -50 -200 -77 -27 -11 -65 -25 -84 -31
-85 -27 -490 -1048 -455 -1148 32 -92 127 -126 219 -79 28 14 95 42 150 61 99
36 116 42 250 98 39 16 102 40 140 54 86 31 130 48 220 87 39 17 94 37 123 44
81 20 123 82 202 290 40 105 127 331 193 503 137 352 139 413 18 456 -76 26
-73 26 -146 -7z m-176 -417 c-23 -54 -190 -487 -202 -523 -11 -32 -41 -11
-191 140 -98 97 -176 180 -172 184 9 9 538 220 558 222 10 1 13 -9 7 -23z
m-415 -680 c1 -18 -166 -94 -364 -165 l-140 -51 13 65 c16 80 129 370 169 433
l30 47 146 -157 c80 -86 146 -164 146 -172z"/>
</g>
</svg>
