<?xml version="1.0" standalone="no"?>
<!DOCTYPE svg PUBLIC "-//W3C//DTD SVG 20010904//EN"
 "http://www.w3.org/TR/2001/REC-SVG-20010904/DTD/svg10.dtd">
<svg version="1.0" xmlns="http://www.w3.org/2000/svg"
 width="489.000000pt" height="495.000000pt" viewBox="0 0 489.000000 495.000000"
 preserveAspectRatio="xMidYMid meet">
<metadata>
Created by potrace 1.10, written by Peter Selinger 2001-2011
</metadata>
<g transform="translate(0.000000,495.000000) scale(0.100000,-0.100000)"
fill="#000000" stroke="none">
<path d="M2394 4919 c-3 -5 -18 -9 -33 -9 -35 0 -90 -39 -178 -128 -37 -38
-93 -90 -123 -116 -63 -55 -352 -332 -504 -482 -55 -55 -145 -140 -200 -188
-93 -82 -172 -159 -444 -427 -64 -63 -161 -155 -216 -203 -54 -48 -149 -137
-212 -199 -214 -209 -370 -362 -427 -416 l-57 -54 0 -1323 0 -1323 33 -25 34
-26 774 0 c751 0 775 1 806 20 46 28 82 88 93 156 6 34 10 320 10 674 0 607 3
736 21 755 5 5 9 18 9 29 0 11 18 58 41 104 59 121 179 240 304 301 84 42 116
51 220 68 199 30 432 -61 578 -226 88 -100 149 -234 161 -356 4 -33 6 -342 6
-687 0 -516 3 -637 15 -683 16 -63 42 -105 84 -135 29 -20 40 -20 804 -20
l774 0 34 23 c19 12 40 35 47 50 7 15 20 27 28 27 12 0 14 170 14 1280 0 1121
-2 1280 -15 1280 -8 0 -21 12 -29 28 -12 23 -131 140 -230 227 -16 13 -146
139 -290 278 -248 241 -302 292 -371 352 -16 15 -91 86 -165 158 -193 187
-466 448 -494 472 -13 11 -138 130 -277 265 -324 314 -431 414 -481 448 -27
19 -137 42 -144 31z"/>
</g>
</svg>
