<?xml version="1.0" standalone="no"?>
<!DOCTYPE svg PUBLIC "-//W3C//DTD SVG 20010904//EN"
 "http://www.w3.org/TR/2001/REC-SVG-20010904/DTD/svg10.dtd">
<svg version="1.0" xmlns="http://www.w3.org/2000/svg"
 width="525.000000pt" height="552.000000pt" viewBox="0 0 525.000000 552.000000"
 preserveAspectRatio="xMidYMid meet">
<metadata>
Created by potrace 1.10, written by Peter Selinger 2001-2011
</metadata>
<g transform="translate(0.000000,552.000000) scale(0.100000,-0.100000)"
fill="#000000" stroke="none">
<path d="M2415 5209 c-83 -3 -156 -8 -162 -12 -10 -6 -160 -28 -195 -28 -10 0
-20 -4 -23 -10 -4 -5 -23 -9 -43 -9 -20 0 -50 -7 -66 -15 -15 -8 -38 -15 -50
-15 -12 0 -26 -4 -32 -9 -5 -6 -27 -14 -49 -20 -52 -12 -103 -30 -138 -47 -16
-8 -37 -14 -47 -14 -15 0 -109 -43 -245 -113 -72 -37 -80 -42 -88 -54 -4 -7
-14 -13 -22 -13 -8 0 -34 -13 -58 -30 -25 -16 -50 -30 -56 -30 -6 0 -11 -4
-11 -8 0 -5 -27 -26 -60 -47 -33 -21 -60 -42 -60 -47 0 -4 -13 -14 -28 -22
-40 -21 -86 -62 -236 -212 -143 -143 -216 -223 -216 -239 0 -6 -9 -18 -19 -27
-22 -18 -139 -188 -158 -228 -4 -8 -26 -48 -50 -88 -24 -40 -43 -79 -43 -86 0
-7 -7 -19 -15 -26 -8 -7 -15 -18 -15 -25 0 -8 -8 -28 -17 -47 -9 -18 -21 -42
-26 -53 -14 -27 -67 -173 -77 -210 -4 -16 -12 -41 -18 -55 -5 -14 -17 -61 -26
-105 -10 -44 -23 -100 -31 -125 -24 -80 -30 -179 -30 -510 0 -318 12 -491 35
-514 5 -5 10 -29 10 -53 0 -24 7 -60 15 -80 8 -19 15 -48 15 -63 0 -15 7 -33
15 -40 8 -7 15 -27 15 -45 0 -18 7 -38 15 -45 8 -7 15 -23 15 -35 0 -13 6 -36
14 -52 8 -15 22 -46 31 -68 44 -107 107 -234 122 -247 7 -6 13 -19 13 -29 0
-10 5 -21 11 -24 5 -4 15 -17 20 -28 10 -24 22 -43 83 -134 90 -133 240 -311
330 -393 22 -19 68 -62 103 -95 36 -33 79 -69 97 -80 18 -11 41 -28 51 -39 16
-16 185 -131 240 -163 30 -17 306 -154 335 -165 14 -6 39 -16 55 -23 34 -15
196 -67 265 -85 50 -12 96 -22 183 -39 31 -6 83 -16 115 -23 82 -16 570 -22
657 -8 39 6 95 14 125 17 30 3 60 9 66 14 6 5 18 7 27 3 8 -3 18 -1 22 5 3 6
22 11 40 11 19 0 52 6 72 14 21 7 65 22 98 32 33 10 65 21 70 25 6 4 25 10 43
14 18 4 45 13 60 21 15 8 34 14 42 14 12 0 145 60 221 100 8 4 40 21 70 36 69
36 280 178 304 204 10 11 23 20 29 20 33 0 456 422 456 455 0 6 9 18 19 27 18
15 100 131 127 180 7 11 17 25 23 31 6 6 11 17 11 25 0 7 11 28 24 45 22 30
84 147 111 212 7 17 20 47 29 68 43 101 62 150 76 202 5 17 13 44 18 60 14 40
31 110 42 165 4 25 13 58 19 73 6 16 11 45 11 65 0 20 7 73 15 117 22 114 22
557 0 640 -8 33 -15 85 -15 116 0 38 -5 61 -15 69 -9 8 -15 30 -15 57 0 24 -7
60 -15 80 -8 19 -15 48 -15 63 0 15 -7 33 -15 40 -8 7 -15 22 -15 34 0 11 -7
34 -15 50 -8 15 -15 35 -15 43 0 8 -7 31 -16 51 -8 21 -22 52 -29 70 -63 146
-122 261 -150 292 -8 9 -15 23 -15 31 0 8 -5 20 -11 26 -6 6 -16 20 -23 31
-26 48 -105 159 -125 176 -11 11 -21 24 -21 31 0 6 -32 46 -71 88 -39 43 -85
94 -101 115 -31 39 -79 86 -102 99 -7 4 -51 43 -97 85 -86 79 -328 247 -421
293 -29 14 -60 30 -68 35 -37 22 -206 100 -216 100 -7 0 -25 7 -40 15 -16 8
-38 15 -49 15 -12 0 -25 4 -30 9 -23 19 -366 111 -419 111 -16 0 -63 7 -105
15 -88 17 -264 22 -476 14z m1204 -1372 c44 -9 63 -20 101 -58 46 -46 56 -68
66 -148 4 -29 -22 -131 -36 -145 -5 -5 -10 -18 -10 -27 0 -10 -6 -30 -14 -46
-25 -48 -46 -100 -46 -115 0 -7 -7 -22 -15 -32 -8 -11 -15 -28 -15 -37 0 -10
-6 -30 -14 -46 -26 -52 -46 -104 -46 -118 0 -7 -7 -27 -15 -44 -8 -17 -22 -45
-30 -62 -8 -17 -15 -37 -15 -44 0 -7 -6 -26 -14 -42 -25 -48 -46 -100 -46
-115 0 -7 -7 -22 -15 -32 -8 -11 -15 -29 -15 -41 0 -12 -4 -25 -9 -30 -9 -10
-36 -77 -48 -120 -3 -11 -18 -48 -34 -83 -16 -34 -29 -68 -29 -76 0 -8 -6 -27
-14 -43 -25 -48 -46 -100 -46 -115 0 -7 -7 -22 -15 -32 -8 -11 -15 -30 -15
-42 0 -12 -7 -27 -15 -34 -8 -7 -15 -18 -15 -25 0 -18 -64 -78 -107 -99 -21
-10 -50 -25 -65 -32 -14 -8 -35 -14 -45 -14 -11 0 -28 -7 -39 -15 -10 -8 -28
-15 -39 -15 -11 0 -47 -14 -80 -30 -33 -16 -68 -30 -78 -30 -9 0 -43 -14 -74
-30 -31 -17 -65 -30 -75 -30 -11 0 -32 -6 -46 -14 -15 -8 -47 -21 -72 -31 -25
-9 -58 -23 -73 -31 -16 -8 -37 -14 -48 -14 -11 0 -45 -14 -76 -30 -31 -17 -65
-30 -75 -30 -11 0 -33 -7 -49 -15 -16 -8 -42 -22 -58 -30 -16 -8 -37 -15 -46
-15 -9 0 -29 -6 -43 -14 -15 -8 -47 -21 -72 -31 -25 -9 -58 -23 -73 -31 -16
-8 -37 -14 -48 -14 -11 0 -45 -13 -76 -30 -31 -16 -66 -30 -79 -30 -12 0 -26
-4 -29 -10 -6 -10 -62 -8 -128 5 -50 10 -131 89 -141 137 -15 71 -3 185 23
211 6 6 11 19 11 28 0 10 7 31 15 48 8 17 22 45 30 62 8 17 15 37 15 45 0 8
14 43 30 77 16 35 30 72 30 81 0 10 6 30 14 44 8 15 21 47 31 72 9 25 23 58
31 73 8 16 14 35 14 42 0 7 7 27 15 44 8 17 22 45 30 62 8 17 15 37 15 45 0 8
14 43 30 77 17 35 30 72 30 81 0 10 6 30 13 44 8 15 21 42 30 60 9 19 17 41
17 51 0 9 7 26 15 37 8 10 15 27 15 36 0 9 7 31 16 50 38 75 44 90 44 104 0
22 66 157 90 182 28 30 96 72 116 72 9 0 28 6 42 13 15 8 42 21 60 30 19 9 42
17 53 17 11 0 45 14 76 30 31 17 64 30 74 30 9 0 39 11 66 24 26 13 67 29 90
35 23 7 45 16 48 21 3 6 15 10 27 10 11 0 32 6 46 13 15 8 42 21 60 30 19 9
42 17 53 17 11 0 45 14 76 30 31 17 65 30 75 30 11 0 32 6 46 14 15 8 47 21
72 31 25 9 58 23 73 31 16 8 37 14 48 14 11 0 45 14 76 30 31 17 64 30 75 30
10 0 44 14 75 30 31 17 65 30 77 30 12 0 26 4 33 8 18 11 52 11 112 -1z"/>
<path d="M3081 3195 c-23 -14 -52 -25 -63 -25 -19 0 -30 -5 -105 -44 -17 -9
-40 -16 -50 -16 -11 0 -28 -7 -39 -15 -10 -8 -28 -15 -39 -15 -11 0 -47 -14
-80 -30 -33 -16 -68 -30 -78 -30 -9 0 -43 -13 -74 -30 -31 -16 -65 -30 -75
-30 -11 0 -32 -6 -46 -14 -15 -8 -48 -24 -74 -36 -27 -12 -48 -23 -48 -23 0
-1 117 -119 259 -261 l259 -259 21 44 c12 23 21 47 21 52 0 10 23 67 46 110 8
16 14 35 14 42 0 7 7 27 15 44 8 17 22 45 30 62 8 17 15 37 15 44 0 15 22 69
46 117 8 14 14 34 14 43 0 9 6 29 14 43 8 15 21 47 31 72 9 25 23 59 30 75 26
62 35 86 35 95 0 17 -34 11 -79 -15z"/>
</g>
</svg>
