<?xml version="1.0" standalone="no"?>
<!DOCTYPE svg PUBLIC "-//W3C//DTD SVG 20010904//EN"
 "http://www.w3.org/TR/2001/REC-SVG-20010904/DTD/svg10.dtd">
<svg version="1.0" xmlns="http://www.w3.org/2000/svg"
 width="513.000000pt" height="522.000000pt" viewBox="0 0 513.000000 522.000000"
 preserveAspectRatio="xMidYMid meet">
<metadata>
Created by potrace 1.10, written by Peter Selinger 2001-2011
</metadata>
<g transform="translate(0.000000,522.000000) scale(0.100000,-0.100000)"
fill="#000000" stroke="none">
<path d="M2560 5210 c0 -5 -9 -10 -19 -10 -11 0 -23 -4 -26 -10 -3 -5 -16 -10
-29 -10 -32 0 -215 -166 -599 -546 -56 -55 -154 -147 -217 -204 -111 -100
-231 -216 -443 -426 -56 -55 -127 -122 -157 -148 -68 -59 -332 -312 -488 -467
-64 -63 -162 -155 -217 -204 -55 -49 -160 -148 -233 -222 l-132 -133 0 -1351
c0 -1344 0 -1351 20 -1380 12 -15 34 -38 51 -50 67 -47 89 -48 979 -48 857 -1
885 0 922 37 7 7 17 12 23 12 16 0 48 37 74 85 21 40 21 46 25 740 3 764 3
760 62 876 16 30 52 78 79 106 51 51 153 113 187 113 10 0 33 7 50 16 24 13
52 15 120 12 49 -2 93 -9 100 -16 7 -7 19 -12 27 -12 33 0 127 -57 180 -110
57 -57 112 -148 126 -210 5 -19 11 -44 13 -55 3 -11 7 -339 9 -728 l3 -708 34
-45 c40 -52 89 -88 137 -99 45 -11 1735 -11 1774 -1 17 5 49 22 73 37 24 16
47 29 53 29 5 0 9 521 9 1395 0 1109 -3 1395 -12 1395 -7 0 -51 37 -98 82 -47
45 -158 152 -247 237 -89 86 -173 165 -186 176 -14 11 -139 130 -278 265 -268
259 -345 333 -383 365 -13 11 -138 130 -277 265 -270 261 -345 332 -384 366
-14 11 -137 130 -274 263 -264 257 -300 286 -356 297 -20 3 -35 12 -35 20 0 8
-9 14 -20 14 -11 0 -20 -4 -20 -10z m101 -663 c46 -45 117 -112 157 -148 69
-63 161 -151 457 -438 72 -69 163 -156 203 -192 40 -37 130 -122 200 -189 310
-301 392 -379 460 -441 72 -66 216 -204 445 -427 l117 -115 -2 -1061 -3 -1061
-583 -3 c-461 -2 -584 0 -587 10 -3 7 -7 256 -10 553 -4 597 -9 708 -31 726
-8 6 -14 25 -14 41 0 28 -19 82 -41 118 -5 8 -14 26 -19 39 -25 58 -105 162
-183 236 -108 104 -129 120 -191 151 -28 14 -71 37 -96 50 -25 13 -52 24 -61
24 -9 0 -32 6 -50 14 -41 17 -167 31 -269 30 -99 -1 -239 -19 -253 -33 -6 -6
-21 -11 -33 -11 -28 0 -195 -83 -249 -124 -97 -74 -183 -161 -231 -236 -71
-112 -80 -130 -134 -280 -25 -70 -32 -215 -36 -750 -2 -299 -8 -548 -12 -552
-5 -5 -269 -7 -588 -6 l-579 3 -3 1066 -2 1066 82 74 c46 40 138 128 205 194
165 164 426 412 493 471 30 26 101 93 157 148 212 210 332 326 443 426 63 57
161 149 217 204 279 276 523 506 537 506 2 0 41 -37 87 -83z"/>
</g>
</svg>
