<?xml version="1.0" standalone="no"?>
<!DOCTYPE svg PUBLIC "-//W3C//DTD SVG 20010904//EN"
 "http://www.w3.org/TR/2001/REC-SVG-20010904/DTD/svg10.dtd">
<svg version="1.0" xmlns="http://www.w3.org/2000/svg"
 width="273.000000pt" height="282.000000pt" viewBox="0 0 273.000000 282.000000"
 preserveAspectRatio="xMidYMid meet">
<metadata>
Created by potrace 1.10, written by Peter Selinger 2001-2011
</metadata>
<g transform="translate(0.000000,282.000000) scale(0.100000,-0.100000)"
fill="#000000" stroke="none">
<path d="M794 2690 c-77 -4 -156 -13 -175 -19 -19 -6 -61 -20 -94 -30 -83 -27
-119 -46 -198 -104 -59 -43 -140 -133 -160 -177 -4 -8 -17 -31 -28 -50 -12
-19 -28 -53 -37 -75 -14 -39 -20 -62 -45 -190 -8 -42 -11 -241 -11 -665 l1
-605 26 -95 c15 -52 30 -106 33 -119 26 -92 129 -231 221 -298 96 -70 158 -98
298 -132 163 -41 1389 -41 1429 -1 6 6 18 10 28 10 28 0 130 36 184 65 100 53
191 138 243 226 115 196 130 306 130 984 0 605 -17 761 -98 896 -12 19 -25 43
-30 54 -20 43 -109 141 -161 177 -95 67 -199 110 -320 134 -71 14 -171 17
-590 19 -278 2 -568 0 -646 -5z m1230 -253 c21 -9 47 -17 57 -17 37 0 106 -45
177 -117 39 -40 72 -81 72 -90 0 -10 7 -27 15 -37 8 -11 15 -30 15 -43 0 -13
8 -38 18 -56 16 -30 17 -81 17 -672 0 -708 5 -648 -64 -808 -23 -53 -152 -187
-180 -187 -9 0 -23 -6 -29 -12 -19 -19 -114 -39 -227 -48 -130 -10 -967 -11
-1110 -1 -164 12 -262 49 -349 131 -52 49 -116 153 -116 188 0 9 -8 37 -17 62
-16 41 -18 104 -18 675 0 588 1 634 19 685 65 193 163 292 336 340 83 23 222
28 785 26 499 -2 564 -4 599 -19z"/>
<path d="M2000 2240 c-42 -7 -90 -37 -90 -55 0 -7 -7 -18 -15 -25 -21 -18 -20
-102 3 -140 62 -101 208 -107 265 -10 27 44 26 130 -1 168 -39 54 -93 75 -162
62z"/>
<path d="M1275 2060 c-44 -3 -98 -11 -120 -19 -107 -35 -239 -116 -302 -184
-54 -58 -143 -213 -143 -248 0 -11 -7 -34 -16 -51 -25 -49 -22 -265 6 -343 53
-147 104 -226 203 -316 61 -55 193 -129 229 -129 11 0 32 -7 49 -15 43 -23
285 -23 328 -1 16 9 37 16 45 16 9 0 35 10 58 22 117 60 200 127 264 213 40
53 94 160 94 185 0 12 7 37 15 57 33 78 16 332 -26 403 -5 8 -12 22 -15 30 -3
8 -10 22 -15 30 -5 8 -12 22 -16 30 -31 70 -168 201 -258 246 -133 67 -220 84
-380 74z m229 -262 c73 -28 175 -112 197 -162 5 -11 13 -28 18 -36 40 -71 43
-83 44 -193 1 -109 0 -114 -35 -187 -67 -139 -178 -222 -320 -241 -123 -16
-222 7 -320 73 -49 34 -71 57 -104 113 -66 111 -66 110 -67 228 -2 110 -1 113
35 188 36 74 126 179 153 179 7 0 18 7 25 15 7 8 19 15 27 15 8 0 29 7 46 15
18 8 48 16 67 18 63 8 184 -5 234 -25z"/>
</g>
</svg>
