<?xml version="1.0" standalone="no"?>
<!DOCTYPE svg PUBLIC "-//W3C//DTD SVG 20010904//EN"
 "http://www.w3.org/TR/2001/REC-SVG-20010904/DTD/svg10.dtd">
<svg version="1.0" xmlns="http://www.w3.org/2000/svg"
 width="130.000000pt" height="70.000000pt" viewBox="0 0 232.000000 70.000000"
 preserveAspectRatio="xMidYMid meet">
<metadata>
Created by potrace 1.10, written by Peter Selinger 2001-2011
</metadata>
<g transform="translate(0.000000,70.000000) scale(0.050000,-0.050000)"
fill="#000000" stroke="none">
<path d="M150 1277 c-142 -125 -190 -301 -109 -404 48 -61 107 -72 91 -18 -30
103 -33 147 -13 220 12 45 40 102 61 128 l40 47 -5 -446 c-5 -482 4 -518 94
-364 50 86 76 816 30 871 -39 47 -112 34 -189 -34z"/>
<path d="M1493 1327 c-7 -8 -13 -48 -13 -90 0 -75 -2 -77 -70 -77 -61 0 -70
-6 -70 -50 0 -44 9 -50 72 -50 l72 0 -7 -165 c-6 -121 -18 -180 -47 -223 l-38
-58 -15 58 c-9 32 -53 91 -98 130 l-83 72 33 64 c40 77 27 102 -50 102 -80 0
-135 -82 -106 -158 17 -46 10 -70 -51 -171 -108 -177 -122 -169 -122 66 0 329
-163 370 -280 71 l-38 -98 -1 133 c-1 131 -40 185 -104 145 -19 -12 -23 -488
-5 -536 22 -56 106 -40 119 23 36 167 145 425 179 425 5 0 7 -94 4 -209 -5
-243 19 -295 119 -260 47 16 205 217 234 297 13 35 133 -90 133 -139 0 -70
-48 -98 -105 -60 -69 45 -152 -33 -86 -81 107 -78 341 5 382 137 12 36 17 31
41 -36 49 -143 162 -170 238 -58 l41 61 40 -61 c55 -84 160 -94 233 -22 l51
52 33 -51 c42 -64 137 -68 179 -8 l29 42 42 -42 c50 -50 136 -54 198 -11 65
46 53 5 -19 -62 -220 -207 -230 -389 -20 -389 135 0 203 113 203 336 0 120 7
144 68 229 37 52 87 140 110 195 67 155 143 148 119 -11 -38 -239 110 -425
232 -291 34 38 35 38 73 0 54 -54 149 -49 210 12 58 58 68 61 68 21 0 -65 136
-94 181 -40 24 29 28 29 43 0 42 -75 136 -38 136 54 0 93 47 290 76 319 11 11
23 -42 29 -131 14 -178 40 -238 101 -229 33 4 45 22 49 66 3 33 21 119 40 190
l34 130 13 -157 c24 -285 223 -388 270 -139 18 95 -6 106 -42 19 -63 -150
-110 -65 -110 196 0 190 -1 192 -53 212 -82 31 -102 13 -151 -145 l-46 -146
-6 136 c-9 216 -120 242 -192 44 l-29 -80 -2 93 c-1 77 -8 94 -44 104 -70 18
-77 1 -77 -187 0 -191 -20 -274 -72 -293 -53 -21 -67 32 -68 256 0 217 -40
289 -117 212 -11 -11 -24 -10 -32 3 -15 24 -108 29 -160 10 -63 -24 -115 -165
-116 -311 -1 -140 -26 -192 -82 -171 -41 16 -52 126 -28 281 25 159 11 179
-110 160 -67 -11 -75 -8 -75 30 0 33 -12 43 -50 43 -62 0 -105 -76 -74 -131
23 -42 -6 -138 -73 -249 l-43 -70 0 207 0 206 -69 -6 c-38 -3 -75 1 -83 9
-107 107 -269 -76 -272 -308 -4 -298 -113 -238 -120 66 l-6 226 -70 3 c-38 1
-92 11 -120 22 -112 44 -208 -62 -232 -254 -37 -305 -167 -306 -168 -1 0 243
14 280 100 280 66 0 100 24 100 70 0 4 -38 10 -85 14 -84 6 -85 7 -91 89 -5
66 -15 85 -50 95 -57 15 -65 15 -81 -1z m576 -476 c26 -141 -33 -311 -109
-311 -86 0 -99 301 -17 383 52 52 108 19 126 -72z m539 43 c55 -206 -68 -463
-149 -311 -40 74 -15 296 38 339 53 43 95 32 111 -28z m962 -133 c0 -140 -38
-221 -102 -221 -99 0 -89 382 10 406 64 15 92 -41 92 -185z m-954 -572 c-19
-57 -39 -81 -71 -85 -94 -14 -84 101 19 226 l66 79 6 -70 c3 -39 -6 -106 -20
-150z"/>
</g>
</svg>
