<?xml version="1.0" standalone="no"?>
<!DOCTYPE svg PUBLIC "-//W3C//DTD SVG 20010904//EN"
 "http://www.w3.org/TR/2001/REC-SVG-20010904/DTD/svg10.dtd">
<svg version="1.0" xmlns="http://www.w3.org/2000/svg"
 width="423.000000pt" height="381.000000pt" viewBox="0 0 423.000000 381.000000"
 preserveAspectRatio="xMidYMid meet">
<metadata>
Created by potrace 1.10, written by Peter Selinger 2001-2011
</metadata>
<g transform="translate(0.000000,381.000000) scale(0.100000,-0.100000)"
fill="#000000" stroke="none">
<path d="M1109 3620 c-37 -5 -76 -13 -87 -19 -11 -6 -30 -11 -41 -11 -29 0
-113 -29 -132 -46 -8 -8 -27 -14 -41 -14 -14 0 -31 -7 -38 -15 -7 -8 -21 -15
-31 -15 -10 0 -21 -5 -24 -11 -4 -5 -17 -14 -28 -20 -51 -22 -175 -114 -251
-187 -67 -64 -191 -226 -225 -293 -12 -24 -26 -51 -30 -59 -72 -130 -131 -370
-131 -535 0 -90 33 -353 48 -381 5 -11 12 -35 15 -56 5 -32 43 -126 68 -168 5
-8 12 -22 15 -30 23 -60 92 -170 160 -255 13 -16 47 -59 75 -95 77 -96 360
-369 536 -514 20 -17 68 -60 107 -95 39 -34 100 -88 135 -120 35 -31 95 -85
135 -121 194 -176 305 -273 371 -325 22 -16 55 -45 76 -63 20 -17 40 -32 45
-32 5 -1 20 -14 34 -30 13 -17 29 -30 36 -30 6 0 17 -7 24 -15 7 -8 19 -15 28
-15 8 0 24 -8 34 -17 26 -23 228 -24 255 -1 10 8 29 18 43 21 14 4 43 22 65
40 46 39 208 174 275 228 25 20 59 49 75 65 17 15 93 84 170 153 77 68 163
146 190 172 28 26 88 79 135 119 47 40 87 76 90 79 3 4 54 49 115 101 140 121
348 327 408 405 25 33 60 76 76 95 17 19 31 39 31 44 0 4 14 25 30 46 17 21
30 41 30 44 0 3 14 25 30 48 17 22 30 49 30 58 0 10 7 23 15 30 8 7 15 20 15
29 0 9 6 25 13 36 20 29 47 107 47 133 0 13 7 39 16 60 34 80 55 384 33 497
-5 28 -13 76 -18 108 -5 32 -14 64 -19 70 -5 7 -13 29 -16 51 -4 21 -11 46
-15 55 -5 9 -18 39 -30 66 -13 28 -29 63 -37 78 -9 15 -21 38 -28 50 -25 47
-71 113 -100 147 -65 74 -249 250 -260 250 -4 0 -37 19 -74 43 -81 51 -116 68
-207 100 -126 45 -170 56 -266 68 -99 12 -374 5 -393 -10 -6 -5 -29 -11 -51
-15 -45 -8 -182 -62 -206 -83 -8 -7 -23 -13 -31 -13 -9 0 -21 -7 -28 -15 -7
-8 -17 -15 -22 -15 -17 0 -165 -118 -205 -164 -22 -25 -44 -46 -48 -46 -5 0
-36 26 -70 58 -86 79 -112 100 -175 140 -30 19 -66 42 -80 50 -14 9 -47 24
-75 34 -27 10 -63 24 -80 32 -101 47 -346 68 -536 46z m383 -374 c40 -14 89
-31 108 -38 59 -23 174 -105 231 -165 68 -72 208 -281 254 -380 18 -39 51 -44
66 -10 5 12 15 31 22 42 25 42 108 181 120 200 62 102 207 247 277 278 8 4 22
11 30 15 8 5 31 16 50 24 19 8 52 23 73 32 21 9 49 16 64 16 14 0 44 5 65 12
59 18 266 -5 355 -38 37 -15 80 -28 95 -31 15 -3 33 -11 39 -19 6 -8 15 -14
20 -14 15 0 143 -92 188 -134 52 -50 150 -178 172 -226 9 -19 30 -64 47 -100
42 -92 55 -174 56 -345 1 -227 -27 -330 -151 -545 -95 -165 -282 -356 -703
-720 -48 -41 -167 -147 -265 -235 -260 -234 -537 -476 -558 -487 -24 -12 -54
-2 -97 34 -72 60 -135 115 -204 176 -39 35 -96 86 -126 112 -51 45 -95 85
-285 256 -38 35 -99 88 -135 119 -36 31 -90 79 -120 106 -30 27 -90 79 -133
116 -120 104 -306 290 -360 363 -28 36 -53 67 -56 70 -11 8 -65 91 -86 130
-70 135 -96 203 -120 316 -19 92 -20 320 -1 371 8 21 17 54 19 75 8 52 63 171
126 268 42 65 186 208 239 235 20 11 56 32 78 48 23 15 50 27 61 27 10 0 28 6
39 14 11 8 37 17 57 21 21 4 40 11 43 16 3 5 24 9 47 10 23 1 53 5 67 10 45
15 213 1 292 -25z"/>
</g>
</svg>
