<?xml version="1.0" standalone="no"?>
<!DOCTYPE svg PUBLIC "-//W3C//DTD SVG 20010904//EN"
 "http://www.w3.org/TR/2001/REC-SVG-20010904/DTD/svg10.dtd">
<svg version="1.0" xmlns="http://www.w3.org/2000/svg"
 width="100.000000pt" height="103.000000pt" viewBox="0 0 100.000000 103.000000"
 preserveAspectRatio="xMidYMid meet">
<metadata>
Created by potrace 1.10, written by Peter Selinger 2001-2011
</metadata>
<g transform="translate(0.000000,103.000000) scale(0.050000,-0.050000)"
fill="#000000" stroke="none">
<path d="M769 1991 c-691 -126 -984 -1018 -511 -1554 73 -83 82 -104 82 -194
0 -172 105 -223 280 -135 80 41 109 46 173 31 934 -217 1574 922 901 1602
-235 238 -540 320 -925 250z m474 -160 c590 -179 772 -894 338 -1325 -188
-186 -346 -237 -686 -218 -211 12 -242 9 -314 -27 -105 -54 -101 -56 -101 64
0 96 -8 115 -86 205 -540 629 55 1542 849 1301z"/>
<path d="M768 1280 c-24 -9 -63 -51 -88 -93 -26 -43 -87 -137 -136 -211 -76
-113 -86 -140 -65 -165 39 -47 62 -39 191 68 149 124 161 124 324 1 199 -151
231 -140 415 149 111 174 131 217 111 242 -38 45 -60 37 -206 -81 -154 -124
-139 -125 -323 18 -120 94 -148 103 -223 72z"/>
</g>
</svg>
