<?xml version="1.0" standalone="no"?>
<!DOCTYPE svg PUBLIC "-//W3C//DTD SVG 20010904//EN"
 "http://www.w3.org/TR/2001/REC-SVG-20010904/DTD/svg10.dtd">
<svg version="1.0" xmlns="http://www.w3.org/2000/svg"
 width="129.000000pt" height="138.000000pt" viewBox="0 0 129.000000 138.000000"
 preserveAspectRatio="xMidYMid meet">
<metadata>
Created by potrace 1.10, written by Peter Selinger 2001-2011
</metadata>
<g transform="translate(0.000000,138.000000) scale(0.100000,-0.100000)"
fill="#000000" stroke="none">
<path d="M328 880 c-182 -182 -218 -223 -218 -247 0 -23 36 -64 218 -246 169
-169 223 -217 243 -217 34 0 49 18 49 59 0 32 -13 49 -147 182 -81 81 -149
152 -151 158 -3 8 131 11 482 11 l486 0 0 55 0 55 -485 0 c-384 0 -485 3 -485
13 0 7 68 80 150 162 157 157 172 181 134 219 -34 35 -55 19 -276 -204z"/>
</g>
</svg>
