<?xml version="1.0" standalone="no"?>
<!DOCTYPE svg PUBLIC "-//W3C//DTD SVG 20010904//EN"
 "http://www.w3.org/TR/2001/REC-SVG-20010904/DTD/svg10.dtd">
<svg version="1.0" xmlns="http://www.w3.org/2000/svg"
 width="145.000000pt" height="124.000000pt" viewBox="0 0 145.000000 124.000000"
 preserveAspectRatio="xMidYMid meet">
<metadata>
Created by potrace 1.10, written by Peter Selinger 2001-2011
</metadata>
<g transform="translate(0.000000,124.000000) scale(0.050000,-0.050000)"
fill="#ff2f41" stroke="none">
<path d="M624 2430 c-357 -100 -588 -426 -587 -828 1 -202 113 -523 170 -488
10 7 13 2 6 -9 -25 -41 343 -422 376 -389 8 8 11 4 8 -9 -6 -19 436 -425 695
-639 130 -107 231 -98 370 32 59 55 110 100 114 100 5 0 100 84 211 186 112
102 296 265 409 362 207 179 255 233 228 263 -8 8 -3 9 11 1 34 -19 178 206
216 340 107 367 -53 797 -370 997 -85 54 -133 66 -109 28 9 -15 5 -18 -9 -9
-13 8 -19 22 -13 32 18 29 -197 66 -332 57 -146 -10 -371 -100 -346 -140 9
-14 6 -18 -8 -10 -12 8 -52 -14 -88 -48 -36 -34 -55 -57 -41 -50 45 24 26 -4
-27 -39 -53 -34 -53 -34 -155 67 -192 189 -477 264 -729 193z"/>
</g>
</svg>
